<?xml version="1.0" encoding="UTF-8"?>
<!-- Created with Inkscape (http://www.inkscape.org/) -->
<svg width="334.42mm" height="84.273mm" version="1.1" viewBox="0 0 334.42 84.273" xml:space="preserve" xmlns="http://www.w3.org/2000/svg"><g transform="translate(-77.634 -105.72)"><g><path d="m107.51 147.86v-42.137l-29.879 42.137z" fill="#fccfd4"/><path d="m107.51 147.86v-42.137l29.879 42.137z" fill="#efc9c9"/><path d="m107.51 147.86v-42.137l29.879 42.137z" fill="#fde7ea"/><path d="m107.51 147.86v42.137l-29.879-42.137z" fill="#fde7ea"/><path d="m107.51 147.86v42.137l29.879-42.137z" fill="#fccfd4"/></g><path transform="matrix(.48329 0 0 .48329 -130.11 -119.12)" d="m587.55 599.51v-92h35.333q36 0 36 36.133v19.733q0 36.133-36 36.133zm16.267-14.8h20q18.8 0 18.8-18.8v-24.8q0-18.8-18.8-18.8h-20zm91.066 14.8q-21.067 0-21.067-20.8 0-20.8 21.067-20.8h20.533v-8.6666q0-6.1333-6.1333-6.1333h-28.267v-8.4l6.9333-5.2h22.133q20.933 0 20.933 21.067v48.933zm-5.4667-19.733q0 6.1333 6.1333 6.1333h19.867v-15.867h-19.867q-6.1333 0-6.1333 6zm60.667-62.4v-15.867h16.4v15.867zm0.4 82.133v-70h15.6v70zm35.6 0v-70h79.733q20.933 0 20.933 21.067v48.933h-15.6v-50.267q0-6.1333-6.1333-6.1333h-20.8v56.4h-15.6v-56.4h-26.933v56.4zm119.07-21.067v-27.867q0-21.067 21.067-21.067h18.667q20.933 0 20.933 21.067v27.867q0 21.067-20.933 21.067h-18.667q-21.067 0-21.067-21.067zm15.6 1.3333q0 6.1333 6.1333 6.1333h17.2q6.1333 0 6.1333-6.1333v-30.533q0-6.1333-6.1333-6.1333h-17.2q-6.1333 0-6.1333 6.1333zm64 19.733v-70h38.4q20.933 0 20.933 21.067v48.933h-15.6v-50.267q0-6.1333-6.1333-6.1333h-22v56.4zm77.733-21.067v-27.867q0-21.067 21.067-21.067h22.667v-28.667h15.6v98.666h-38.267q-21.067 0-21.067-21.067zm15.6 1.3333q0 6.1333 6.1334 6.1333h22v-42.8h-22q-6.1334 0-6.1334 6.1333z" fill="#fff" stroke-linecap="square" stroke-width="11.339" style="white-space:pre" aria-label="Daimond"/><path d="m107.51 135.6-29.879 12.258 29.879 12.258 29.879-12.258z" fill="#f98596"/></g></svg>
